<svg width="113" height="124" viewBox="0 0 113 124" fill="none" xmlns="http://www.w3.org/2000/svg">
<g filter="url(#filter0_d_122_13072)">
<path d="M36.4573 44C36.4573 32.9543 45.4116 24 56.4573 24C67.503 24 76.4573 32.9543 76.4573 44C76.4573 55.0457 67.503 64 56.4573 64C45.4116 64 36.4573 55.0457 36.4573 44Z" fill="white"/>
<path d="M56.4573 24.5C67.2268 24.5 75.9573 33.2304 75.9573 44C75.9573 54.7696 67.2268 63.5 56.4573 63.5C45.6877 63.5 36.9573 54.7696 36.9573 44C36.9573 33.2304 45.6877 24.5 56.4573 24.5Z" stroke="#16A34A"/>
<path fill-rule="evenodd" clip-rule="evenodd" d="M54.3283 46.4561L61.9041 38.8091L63.7302 40.6182L55.2413 49.1868C54.9999 49.4304 54.6712 49.5675 54.3283 49.5675C53.9853 49.5675 53.6566 49.4304 53.4152 49.1868L49.1708 44.9026L50.9969 43.0935L54.3283 46.4561Z" fill="#16A34A"/>
<rect x="55.4573" y="64" width="2" height="12" fill="#16A34A"/>
</g>
<defs>
<filter id="filter0_d_122_13072" x="0.457275" y="0" width="112" height="124" filterUnits="userSpaceOnUse" color-interpolation-filters="sRGB">
<feFlood flood-opacity="0" result="BackgroundImageFix"/>
<feColorMatrix in="SourceAlpha" type="matrix" values="0 0 0 0 0 0 0 0 0 0 0 0 0 0 0 0 0 0 127 0" result="hardAlpha"/>
<feOffset dy="12"/>
<feGaussianBlur stdDeviation="18"/>
<feColorMatrix type="matrix" values="0 0 0 0 0.215686 0 0 0 0 0.254902 0 0 0 0 0.317647 0 0 0 0.2 0"/>
<feBlend mode="normal" in2="BackgroundImageFix" result="effect1_dropShadow_122_13072"/>
<feBlend mode="normal" in="SourceGraphic" in2="effect1_dropShadow_122_13072" result="shape"/>
</filter>
</defs>
</svg>
